<svg xmlns="http://www.w3.org/2000/svg" width="18" height="18" viewBox="0 0 18 18"><defs><style>.a{fill:#5f8dc4;}.b{fill:#fff;}</style></defs><path class="a" d="M17.006,0H.992A.993.993,0,0,0,0,.994V17.007A.993.993,0,0,0,.993,18H17.006A.993.993,0,0,0,18,17.007h0V.993A.993.993,0,0,0,17.006,0Zm0,0" transform="translate(0 0)"/><path class="b" d="M212.15,92.606V85.645H214.5l.352-2.725h-2.7V81.185c0-.787.218-1.323,1.347-1.323h1.43v-2.43a19.227,19.227,0,0,0-2.1-.107,3.273,3.273,0,0,0-3.494,3.591V82.92H207v2.725h2.338v6.961Zm0,0" transform="translate(-199.723 -74.606)"/></svg>