<svg xmlns="http://www.w3.org/2000/svg" width="22" height="18" viewBox="0 0 22 18"><defs><style>.a{fill:#5f8dc4;}</style></defs><path class="a" d="M22,50.131a9.352,9.352,0,0,1-2.6.717,4.511,4.511,0,0,0,1.984-2.51,8.976,8.976,0,0,1-2.86,1.1,4.5,4.5,0,0,0-7.8,3.106,4.708,4.708,0,0,0,.1,1.036,12.737,12.737,0,0,1-9.3-4.751A4.564,4.564,0,0,0,2.918,54.9,4.43,4.43,0,0,1,.88,54.339v.05a4.555,4.555,0,0,0,3.614,4.463A4.472,4.472,0,0,1,3.311,59a3.961,3.961,0,0,1-.854-.078,4.557,4.557,0,0,0,4.214,3.164,9.022,9.022,0,0,1-5.592,1.937A8.392,8.392,0,0,1,0,63.962,12.633,12.633,0,0,0,6.919,66,12.8,12.8,0,0,0,19.756,53.076c0-.2-.007-.395-.017-.587A9.033,9.033,0,0,0,22,50.131Z" transform="translate(0 -48)"/></svg>